<svg width="623" height="460" viewBox="0 0 623 460" fill="none" xmlns="http://www.w3.org/2000/svg">
<path d="M185.5 360.5V92H308C415 107 379 213 349 220C407.5 258 392 364 287.5 360.5H185.5Z" fill="#89A59B" stroke="black"/>
<path d="M241.5 174L185.5 201.5V97.5V91.5L188.555 96L241.5 174Z" fill="#515052"/>
<path d="M188.555 96L241.5 174L185.5 201.5V97.5M188.555 96L185.5 91.5V97.5M188.555 96L185.5 97.5" stroke="#FFFBFB"/>
<path d="M190.5 98.5L185.5 101M192 101L185.5 104.5M194 104L185.5 108.5M196 106.5L185.5 112M185.5 116L197.5 109.5M185.5 120L199.5 112M185.5 123.5L201.5 115M185.5 127L203.5 117.5M185.5 131L205.5 120.5M185.5 134.5L207 123.5M185.5 138.5L209 126.5M185.5 142.5L211 129.5M185.5 146.5L213 132.5M185.5 150L215 135.5M185.5 154L217 138.5M185.5 158L219 141M185.5 161.5L221 144M185.5 165L223 146.5M185.5 169L224.5 149.5M185.5 172.5L226.5 152M185.5 176L228 154.5M185.5 179.5L230 157.5M185.5 183L232 160M185.5 186.5L233.5 163M185.5 190L235.5 165.5M185.5 193.5L237.5 168M185.5 197.5L239 171" stroke="white" stroke-width="0.3"/>
<path d="M308 244L334 229.098L345 222.793L349 220.5C353.007 222.877 356.481 225.307 359.5 227.757C364.531 231.839 368.298 235.973 371.162 240C371.305 240.201 371.445 240.402 371.584 240.603C378.689 250.889 379.979 260.418 381.5 266.5L354 258.082L308 244Z" fill="#89A59C"/>
<path d="M334 229.098L308 244L354 258.082M334 229.098L371.162 240M334 229.098L345 222.793M371.162 240C368.298 235.973 364.531 231.839 359.5 227.757M371.162 240C371.305 240.201 371.445 240.402 371.584 240.603M345 222.793L349 220.5C353.007 222.877 356.481 225.307 359.5 227.757M345 222.793L359.5 227.757M354 258.082L381.5 266.5C379.979 260.418 378.689 250.889 371.584 240.603M354 258.082L371.584 240.603" stroke="#FBFBFB"/>
<path d="M310.5 242.5L380.5 264M314.5 240.5L380 261.5M317.5 238.5L379.5 258.5M321.5 236L378.5 254.5M325.5 234L377.5 252M329.5 231.5L375.5 247.5M332.5 230L373.5 243.5M337 227.5L369.5 237.5M340 225.5L365 232.5" stroke="#FBFBFB" stroke-width="0.5"/>
<path d="M336 183.5L364 155.5L379.5 159.5C380.5 175.5 372.3 209.6 349.5 220L306.5 205.5C319.7 199.9 327.333 185.833 329.5 179.5L336 183.5Z" fill="#555455" stroke="black"/>
<path d="M373 158.5L324 208M379.5 163.5L331 211.5M378.5 175.5L339.5 215M364 156.5L315.5 204.5M326 188L359.5 209M320 196L351.5 215.5M330 180.5L365.5 201.5" stroke="#FBFBFB"/>
<path d="M248.5 179.5L189 92.5H241.5V137H248.5V179.5Z" fill="#8AA69C" stroke="black"/>
<path d="M237 91.5L241.5 97.5M235.5 91.5L241.5 100.5M233.5 91.5L241.5 103.5M231.5 91.5L241.5 106M229.5 91.5L241.5 109.5M227.5 91.5L241.5 112.5M226 91.5L241.5 115.5M224 91.5L241.5 118M222 91.5L241.5 121.5M220 91.5L241.5 124M218 91.5L241.5 127M216 91.5L241.5 130M214 91.5L248.5 142.5M212 91.5L248.5 145.5M210 91.5L248.5 150M208 91.5L248.5 154M206 91.5L248.5 158M204 91.5L248.5 162M202 91.5L248.5 166.5M200 91.5L248.5 171M198 91.5L248.5 176M196 91.5L240 166.5M194 91.5L217.5 135M192 91.5L208 121.5" stroke="white" stroke-width="0.3"/>
<path d="M272 205.5V250M297.5 205.5V250M344 223H247M329.5 232H247M313.5 241.5H247M329.766 212.737H247" stroke="#FFFBFB"/>
<path d="M349.5 220L306.5 205.5H241.5V249.5H299L349.5 220Z" stroke="#565555"/>
<path d="M353 258L307 244.5L299 249.5C318.5 254 329.5 269 330.5 278.5L353 258Z" fill="#4D4A4B" stroke="#FFFBFB"/>
<path d="M309 245.5L304 250.5M311.5 246.5L307 251.5M314.5 247L309 253M318 248L312 254M321 249L314.5 255.5M324 250.5L316.5 257.5M327.5 251.5L319.5 259.5M331 252.5L321.5 262M334.5 253L324 264M339 254.5L326 267M343 255.5L328 270M347 256.5L329.5 273.5M350 257.5L331 277.5" stroke="#FFFBFB" stroke-width="0.3"/>
<path d="M321.5 145V149.5M325 146V153.5M328 146.5V160.5M331.5 147.5V180.5M334.5 148.5V183M337 149V182M340.5 149.5V178.5M343.5 150.5V176M347.5 151V172M350.5 152.5V169.5M354 153.5V165.5M357 154V162.5M360.5 155V159" stroke="white" stroke-width="0.5"/>
<path d="M363.5 156L315 143C330.6 154.6 330.833 172.167 329 179.5L335.5 183.5L363.5 156Z" stroke="black"/>
<path d="M379 159L290.5 136.5L347 104.5C376.6 123.3 380.667 148.667 379 159Z" fill="#89A59B" stroke="black"/>
<path d="M295.5 134L379.5 155.5M298 132L379.5 153M301.5 130.5L379.5 150.5M305 128L378.5 147M308.5 126.5L378 144M311.5 124L377.5 141.5M315.5 122L376 138M319.5 120.5L375 135M322 118.5L373 130.5M325.5 116.5L371 126.5M329 114.5L368 122M332.5 112.5L365 118.5M336 110.5L361 114.5M340 108L358 111M343.5 106L352 107.5" stroke="#FBFBFB" stroke-width="0.5"/>
<path d="M241.5 109.5H337.5M241.5 118.5H322.5M241.5 127.5H306M241.5 100.5H339" stroke="white"/>
<path d="M290 136.5H241.5V100V92.5H309.5C309.5 92.5 330 94.5 347 104L290 136.5Z" stroke="black"/>
<path d="M298.5 250H249V313.5H298.5C336.5 311.5 346 261 298.5 250Z" fill="#525152" stroke="black"/>
<path d="M249 205.5C265.5 205.667 300 205.9 306 205.5C319.028 199.089 326.112 189.455 328.508 179.5C331.906 165.385 325.877 150.626 314 143.5L291 137H249V205.5Z" fill="#525152"/>
<path d="M314 143.5L291 137H249V205.5C265.5 205.667 300 205.9 306 205.5C319.028 199.089 326.112 189.455 328.508 179.5C331.906 165.385 325.877 150.626 314 143.5ZM314 143.5L319 144.763" stroke="black"/>
<path d="M220 185L186 201.5V256.5L220 185Z" stroke="black"/>
<path d="M240.5 209.5L185.5 266V256.5L220.5 185.5L243.5 173.5L248.5 180.5V204.5H240.5V209.5Z" stroke="white"/>
<path d="M185.5 274.5V360H235M185.5 274.5V270L238.5 283.5V360H235M185.5 274.5L235 360" stroke="white"/>
<path d="M302 359.5L382 270.5C383.333 282.5 382 311.7 366 332.5C350 353.3 316.667 359.167 302 359.5Z" stroke="white"/>
</svg>
