<?xml version="1.0" encoding="utf-8" ?>
<svg xmlns="http://www.w3.org/2000/svg" xmlns:xlink="http://www.w3.org/1999/xlink" width="1024" height="1024">
	<path fill="#FEAF35" d="M277.235 165.098L382.7 105.592L411.565 120.757L459.567 146.057L586.683 214.6L639.779 243.546C649.933 249.037 661.211 253.67 670.375 260.752C685.307 271.155 699.412 283.167 710.746 297.477C718.417 307.162 724.599 317.727 730.141 328.741C733.596 335.608 737.737 343.543 738.976 351.213L739.034 351.818C735.745 352.7 732.921 354.886 730.025 356.639L716.134 364.783L660.955 396.756C648.265 404.121 634.77 411.269 622.72 419.613L617.533 402.026C609.367 377.95 593.933 355.418 574.319 339.201C561.25 328.396 544.257 320.788 529.294 312.909L466.171 279.815L337.701 212.14L291.12 187.61L274.52 178.893C274.499 175.556 273.774 170.181 274.719 167.084C275.141 165.701 276.039 165.631 277.235 165.098Z"/>
	<path fill="#E4412B" d="M274.52 178.893C274.499 175.556 273.774 170.181 274.719 167.084C275.141 165.701 276.039 165.631 277.235 165.098C288.542 169.201 298.5 174.742 309.076 180.317L346.5 199.964L495.647 278.164L543.145 303.486C551.518 307.967 559.907 312.928 568.506 316.918L670.375 260.752C685.307 271.155 699.412 283.167 710.746 297.477C718.417 307.162 724.599 317.727 730.141 328.741C733.596 335.608 737.737 343.543 738.976 351.213L739.034 351.818C735.745 352.7 732.921 354.886 730.025 356.639L716.134 364.783L660.955 396.756C648.265 404.121 634.77 411.269 622.72 419.613L617.533 402.026C609.367 377.95 593.933 355.418 574.319 339.201C561.25 328.396 544.257 320.788 529.294 312.909L466.171 279.815L337.701 212.14L291.12 187.61L274.52 178.893Z"/>
	<path fill="#10577C" d="M274.52 178.893L291.12 187.61L337.701 212.14L466.171 279.815L529.294 312.909C544.257 320.788 561.25 328.396 574.319 339.201C593.933 355.418 609.367 377.95 617.533 402.026L622.72 419.613C634.77 411.269 648.265 404.121 660.955 396.756L716.134 364.783L730.025 356.639C732.921 354.886 735.745 352.7 739.034 351.818L739.437 352.21C743.652 356.378 750.578 359.595 755.749 362.618L783.359 378.666L890.308 440.011L924.525 459.414C932.381 463.807 940.83 467.995 948.133 473.239C955.296 478.381 961.408 484.717 966.242 492.095C974.556 504.786 979.589 521.732 976.266 536.874C974.308 545.795 969.037 553.682 962.301 559.75C954.377 566.888 944.411 572.368 935.358 577.965L907.015 595.804L790.942 669.509L906.802 736.637L945.463 758.962C953.997 763.868 962.926 768.511 970.947 774.217C974.728 776.907 978.161 780.532 980.708 784.411C985.801 792.166 987.953 800.72 985.817 809.903C984.08 817.375 979.11 823.96 973.289 828.787C965.514 835.234 955.891 840.223 947.217 845.407L913.278 866.22L838.002 913.21L746.567 969.83L275.017 696.49L274.585 179.614L274.52 178.893Z"/>
	<path fill="#AA1F12" d="M622.72 419.613C634.77 411.269 648.265 404.121 660.955 396.756L716.134 364.783L730.025 356.639C732.921 354.886 735.745 352.7 739.034 351.818L739.437 352.21L740.249 419.81L740.496 448.094C740.499 452.47 740.843 457.171 740.413 461.516C740.254 463.128 739.73 464.261 738.604 465.401C736.191 467.846 732.869 469.607 729.941 471.352L717.34 478.825L687.5 497.043L669.258 508.293C662.8 511.63 656.812 515.555 650.572 519.259L617.197 539.276L606.563 545.61C604.896 546.564 603.565 547.496 601.632 547.755C611.534 540.329 619.066 530.43 621.093 517.954L621.201 517.25C623.098 505.566 622.105 493.304 622.309 481.492C622.664 460.974 623.764 440.092 622.72 419.613Z"/>
	<path fill="#E4412B" d="M669.258 508.293C675.379 512.263 682.043 516.223 687.231 521.386C711.86 541.997 731.415 569.706 740.409 600.783L623.392 673.009C613.56 642.318 598.839 614.167 577.163 590.134L559.909 572.757C559.136 571.957 559.312 572.425 559.329 571.362L561.945 570.104L601.632 547.755C603.565 547.496 604.896 546.564 606.563 545.61L617.197 539.276L650.572 519.259C656.812 515.555 662.8 511.63 669.258 508.293Z"/>
	<path fill="#64140E" d="M669.258 508.293C675.379 512.263 682.043 516.223 687.231 521.386L665.456 534.58L625.5 558.468L609.16 568.375C607.306 569.538 603.895 572.325 601.875 572.644C600.832 572.809 598.695 572.32 597.579 572.172L588.708 571.289L572.904 570.515C569.293 570.432 565.52 570.624 561.945 570.104L601.632 547.755C603.565 547.496 604.896 546.564 606.563 545.61L617.197 539.276L650.572 519.259C656.812 515.555 662.8 511.63 669.258 508.293Z"/>
	<path fill="#AA1F12" d="M740.409 600.783C741.706 609.405 741.058 618.428 740.983 627.137L740.838 664.094L740.944 701.372C740.971 708.479 741.389 715.877 740.614 722.943C740.202 726.693 739.067 730.555 736.834 733.639C735.356 735.681 733.234 737.245 731.167 738.653L708.496 752.834L659.4 783.497L622.847 807.329C618.49 810.216 614.366 813.61 609.892 816.296C607.848 817.523 605.45 818.979 603.072 819.346C605.64 816.473 608.541 813.392 610.321 809.966L611.884 807.719C616.571 800.771 619.962 793.663 621.623 785.398C624.17 772.726 623.852 759.628 623.892 746.766L623.958 706.993L623.999 686.505C624.006 682.015 624.257 677.432 623.392 673.009L740.409 600.783Z"/>
	<path fill="#60C9D0" d="M291.12 187.61L337.701 212.14L466.171 279.815L529.294 312.909C544.257 320.788 561.25 328.396 574.319 339.201C593.933 355.418 609.367 377.95 617.533 402.026L622.72 419.613C623.764 440.092 622.664 460.974 622.309 481.492C622.105 493.304 623.098 505.566 621.201 517.25L621.093 517.954C619.066 530.43 611.534 540.329 601.632 547.755L561.945 570.104L559.329 571.362C559.312 572.425 559.136 571.957 559.909 572.757L577.163 590.134C598.839 614.167 613.56 642.318 623.392 673.009C624.257 677.432 624.006 682.015 623.999 686.505L623.958 706.993L623.892 746.766C623.852 759.628 624.17 772.726 621.623 785.398C619.962 793.663 616.571 800.771 611.884 807.719L610.321 809.966C608.541 813.392 605.64 816.473 603.072 819.346C595.042 825.31 586.062 830.336 576 831.53C572.569 831.938 570.131 831.988 566.75 831.217L566.023 831.059C564.529 830.725 563.698 830.404 562.559 829.395L562.462 829.262C553.714 827.812 545.229 823.774 537.325 819.892L493.096 795.495L406.164 747.25L332.594 706.564C318.93 699.075 304.508 692.072 291.343 683.787C290.589 681.595 290.995 678.354 290.998 675.976L291.009 660.185L291.044 597.914L291.23 324.19L291.318 235.189C291.332 219.441 292.073 203.299 291.12 187.61Z"/>
	<path d="M562.559 829.395L567.381 829.807C584.472 830.866 598.247 820.748 610.321 809.966C608.541 813.392 605.64 816.473 603.072 819.346C595.042 825.31 586.062 830.336 576 831.53C572.569 831.938 570.131 831.988 566.75 831.217L566.023 831.059C564.529 830.725 563.698 830.404 562.559 829.395Z"/>
	<path fill="#64140E" d="M350.633 272.596L450.298 324.951C450.206 328.659 449.705 332.828 450.195 336.483C447.295 335.341 444.478 333.419 441.763 331.871L425.945 322.86L374.979 293.67C370.178 288.652 363.645 284.021 358.201 279.615C355.38 277.332 352.741 275.639 350.633 272.596Z"/>
	<path fill="#64140E" d="M349.933 496.857L449.066 550.201L449.609 561.804L375.042 520.134C369.112 516.101 364.006 510.435 358.778 505.535C355.663 502.616 352.038 500.728 349.933 496.857Z"/>
	<path fill="#64140E" d="M552.155 380.463C558.653 386.681 563.23 392.274 563.415 401.75L563.486 453.814L563.475 470.418C563.471 473.365 563.704 476.485 563.298 479.401C562.982 481.674 562.365 483.361 560.75 485.044C557.549 488.383 552.728 490.641 548.745 492.889C549.075 490.169 550.084 487.638 550.593 484.962C551.384 480.804 551.476 476.73 551.486 472.507L551.707 431.136C552.352 426.605 551.95 421.458 551.948 416.87C551.945 404.799 551.448 392.501 552.155 380.463Z"/>
	<path fill="#1E414E" d="M559.821 648.63C564.79 669.512 563.493 691.132 563.486 712.417C563.482 723.559 564.257 734.878 562.376 745.906C561.566 750.661 559.826 755.2 557.305 759.31C554.977 763.105 551.321 766.391 547.043 767.771L550.992 764.334L551.029 753.834L551.411 677.886L551.474 660.415C551.473 658.725 551.829 656.049 551.431 654.5C551.294 653.967 550.862 653.558 550.577 653.086L551.614 652.066L552.538 652.418C555.282 651.78 557.915 650.82 559.821 648.63Z"/>
	<path fill="#E4412B" d="M348.559 662.578C350.772 661.92 352.749 660.032 354.649 658.731L364.335 652.747L551.029 753.834L550.992 764.334L547.043 767.771L544.003 769.657C542.331 769.414 540.499 768.126 538.991 767.319L527.209 760.787L495.148 743.18L404.882 693.927L370.496 675.358C363.32 671.506 354.807 667.785 348.559 662.578Z"/>
	<path fill="#AA1F12" d="M348.559 662.578L348.123 662.202C348.096 662.17 347.59 661.33 347.57 661.25C346.945 658.693 347.58 653.958 347.583 651.201L347.621 618.296L347.637 541.5L347.693 496.75L348.5 496.064L349.933 496.857C352.038 500.728 355.663 502.616 358.778 505.535C364.006 510.435 369.112 516.101 375.042 520.134L375.475 645.994L364.335 652.747L354.649 658.731C352.749 660.032 350.772 661.92 348.559 662.578Z"/>
	<path fill="#AA1F12" d="M347.625 439.482L347.565 415.115L347.556 367.743L347.539 305.137L347.448 275.75C347.49 274.126 347.429 272.775 348.5 271.524L350.633 272.596C352.741 275.639 355.38 277.332 358.201 279.615C363.645 284.021 370.178 288.652 374.979 293.67L375.272 424.04C370.938 426.988 366.631 429.878 361.903 432.177C358.448 433.569 355.373 435.738 352.152 437.591C350.839 438.347 349.168 439.458 347.625 439.482Z"/>
	<path fill="#10577C" d="M449.066 550.201C456.263 553.562 464.236 557.271 470.875 561.631L501.4 578.34C509.148 582.593 517.101 586.527 524.331 591.656C540.124 602.86 552.183 620.546 557.351 639.226L557.354 639.347L559.821 648.63C557.915 650.82 555.282 651.78 552.538 652.418L551.614 652.066L550.577 653.086C545.873 649.644 540.421 646.962 535.32 644.146L512.085 631.248C507.366 628.645 502.485 626.252 497.938 623.355C491.239 620.646 484.587 616.338 478.236 612.861L450.487 597.936L450.357 597.585C449.2 594.528 449.443 590.98 449.42 587.75L449.55 572.186C449.665 568.766 450.075 565.196 449.609 561.804L449.066 550.201Z"/>
	<path d="M551.614 652.066C552.781 647.772 554.266 642.669 557.354 639.347L559.821 648.63C557.915 650.82 555.282 651.78 552.538 652.418L551.614 652.066Z"/>
	<path fill="#1E414E" d="M449.066 550.201C456.263 553.562 464.236 557.271 470.875 561.631L471.991 602.137L467.396 604.63C470.254 605.467 473.265 606.207 475.943 607.525C481.709 610.364 486.925 614.335 492.152 618.039C493.712 619.145 496.445 620.586 497.427 622.219L497.938 623.355C491.239 620.646 484.587 616.338 478.236 612.861L450.487 597.936L450.357 597.585C449.2 594.528 449.443 590.98 449.42 587.75L449.55 572.186C449.665 568.766 450.075 565.196 449.609 561.804L449.066 550.201Z"/>
	<path fill="#10577C" d="M450.298 324.951L473.673 337.439L514.532 359.451L534.337 369.74C540.673 372.979 546.626 375.912 552.155 380.463C551.448 392.501 551.945 404.799 551.948 416.87C551.95 421.458 552.352 426.605 551.707 431.136L450.551 376.371C449.383 373.109 450.079 368.414 450.157 364.974L450.411 347.434C450.447 343.834 450.719 340.043 450.195 336.483C449.705 332.828 450.206 328.659 450.298 324.951Z"/>
	<path fill="#C1630E" d="M375.042 520.134L449.609 561.804C450.075 565.196 449.665 568.766 449.55 572.186L449.42 587.75C449.443 590.98 449.2 594.528 450.357 597.585L450.487 597.936L375.475 645.994L375.042 520.134Z"/>
	<path fill="#C1630E" d="M374.979 293.67L425.945 322.86L441.763 331.871C444.478 333.419 447.295 335.341 450.195 336.483C450.719 340.043 450.447 343.834 450.411 347.434L450.157 364.974C450.079 368.414 449.383 373.109 450.551 376.371C443.261 382.443 434.058 386.912 425.987 391.947L375.272 424.04L374.979 293.67Z"/>
	<path fill="#FEAF35" d="M450.487 597.936L478.236 612.861C484.587 616.338 491.239 620.646 497.938 623.355C502.485 626.252 507.366 628.645 512.085 631.248L535.32 644.146C540.421 646.962 545.873 649.644 550.577 653.086C550.862 653.558 551.294 653.967 551.431 654.5C551.829 656.049 551.473 658.725 551.474 660.415L551.411 677.886L551.029 753.834L364.335 652.747L375.475 645.994L450.487 597.936Z"/>
	<path fill="#FEAF35" d="M450.551 376.371L551.707 431.136L551.486 472.507C551.476 476.73 551.384 480.804 550.593 484.962C550.084 487.638 549.075 490.169 548.745 492.889L511 514.014L500.673 519.772C499.269 520.545 497.619 521.722 496.022 521.975C494.688 522.086 493.698 521.396 492.566 520.797L394.676 467.088L363.361 449.91C358.232 447.097 352.601 444.533 347.832 441.156L347.625 439.482C349.168 439.458 350.839 438.347 352.152 437.591C355.373 435.738 358.448 433.569 361.903 432.177C366.631 429.878 370.938 426.988 375.272 424.04L425.987 391.947C434.058 386.912 443.261 382.443 450.551 376.371Z"/>
	<path fill="#AA1F12" d="M496.929 504.992C498.562 503.334 501.036 502.234 503.042 501.067L513.819 494.717C526.196 487.353 538.664 479.03 551.486 472.507C551.476 476.73 551.384 480.804 550.593 484.962C550.084 487.638 549.075 490.169 548.745 492.889L511 514.014L500.673 519.772C499.269 520.545 497.619 521.722 496.022 521.975L496.929 504.992Z"/>
	<path fill="#E4412B" d="M347.625 439.482C349.168 439.458 350.839 438.347 352.152 437.591C355.373 435.738 358.448 433.569 361.903 432.177L453.496 481.621L480.857 496.605L491.985 502.822C493.478 503.622 495.247 504.777 496.929 504.992L496.022 521.975C494.688 522.086 493.698 521.396 492.566 520.797L394.676 467.088L363.361 449.91C358.232 447.097 352.601 444.533 347.832 441.156L347.625 439.482Z"/>
</svg>
